<?xml version="1.0" encoding="UTF-8"?>
<svg version="1.1" xmlns="http://www.w3.org/2000/svg" width="83" height="83">
<path d="M0 0 C27.39 0 54.78 0 83 0 C83 27.39 83 54.78 83 83 C55.61 83 28.22 83 0 83 C0 55.61 0 28.22 0 0 Z " fill="#FCFCFC" transform="translate(0,0)"/>
<path d="M0 0 C7.26 0 14.52 0 22 0 C22 24.75 22 49.5 22 75 C14.74 75 7.48 75 0 75 C-4.27136915 70.72863085 -5.85575345 69.11760175 -8 64 C-8.66 62.68 -9.32 61.36 -10 60 C-4.06 60 1.88 60 8 60 C8 44.82 8 29.64 8 14 C5.36 14 2.72 14 0 14 C0 9.38 0 4.76 0 0 Z " fill="#076A07" transform="translate(55,4)"/>
<path d="M0 0 C7.26 0 14.52 0 22 0 C26.95089656 4.95089656 28.88930798 7.66792395 31 14 C25.06 14 19.12 14 13 14 C13 29.18 13 44.36 13 60 C15.97 60 18.94 60 22 60 C22 64.95 22 69.9 22 75 C14.74 75 7.48 75 0 75 C0 50.25 0 25.5 0 0 Z " fill="#056905" transform="translate(5,4)"/>
<path d="M0 0 C5.61 0 11.22 0 17 0 C17 0.66 17 1.32 17 2 C15.68 2.33 14.36 2.66 13 3 C13 12.24 13 21.48 13 31 C21.2797586 31.86019352 21.2797586 31.86019352 24.5 29.25 C25.94055033 27.0891745 26.63515574 25.55390984 27 23 C27.99 23 28.98 23 30 23 C30 26.96 30 30.92 30 35 C20.1 35 10.2 35 0 35 C0 34.01 0 33.02 0 32 C1.32 31.67 2.64 31.34 4 31 C4.33 21.76 4.66 12.52 5 3 C3.35 2.67 1.7 2.34 0 2 C0 1.34 0 0.68 0 0 Z " fill="#0E0E0E" transform="translate(26,24)"/>
</svg>
