<svg id="Capa_1" data-name="Capa 1" xmlns="http://www.w3.org/2000/svg" viewBox="0 0 455.53 82.43"><defs><style>.cls-1{fill:#060;}.cls-2{fill:#2d2d2d;}.cls-3{fill:none;stroke:#060;stroke-miterlimit:10;stroke-width:0.5px;}</style></defs><path class="cls-1" d="M96.38,46.65V4.2H109c12.54,25.05,14.65,29.27,15.31,31.31h.13c-.46-4.92-.52-11.87-.52-18.82V4.2h9V46.65H120.75C107.29,19,105.65,15.49,105,13.93H105c.33,5.34.4,12.72.4,20.29V46.65Z"/><path class="cls-1" d="M169.49,30.1c0,9.42-4.86,17.17-16.64,17.17-12.22,0-16.37-8.3-16.37-17,0-7.93,4.83-16.48,16.85-16.48C164.62,13.79,169.49,21.46,169.49,30.1ZM146.26,30c0,6.78,2.4,10.18,6.94,10.18,4.16,0,6.61-3.4,6.61-10.06,0-6.29-2.21-9.32-6.87-9.32C148.66,20.84,146.26,24.34,146.26,30Z"/><path class="cls-1" d="M169.67,14.42h4.71V5.78H184v8.64h6v7h-6V37.28c0,2.13.53,3,3.31,3a10.43,10.43,0,0,0,1.93-.12v6.18a22.38,22.38,0,0,1-5.7.61c-6.93,0-9.11-2.63-9.11-8.75V21.4h-4.71Z"/><path class="cls-1" d="M219.73,38.08a74.21,74.21,0,0,0,.46,8.57h-8.4a24.25,24.25,0,0,1-.53-3.7c-1.45,2.51-4.62,4.26-9.46,4.26-8.5,0-11.59-4.91-11.59-9.85,0-6,4.45-10.65,16.27-10.65h3.81v-2.2c0-2.56-.86-4.4-4.56-4.4s-4.61,1.87-4.89,4h-9.35c.34-5,3.57-10.34,14.34-10.34,8.27,0,13.86,2.61,13.86,10.71Zm-9.12-5.67h-3.94c-5.75,0-6.82,2.2-6.82,4.22s1.28,3.78,4.54,3.78c5.13,0,6.22-3.2,6.22-7.32Z"/><path class="cls-1" d="M225.21,25.34c0-5.33,0-8.58-.13-10.91h9.41a45.6,45.6,0,0,1,.26,5.48c1.07-2.46,3.94-6,10.25-6V23c-6.95-.17-10.12,1.7-10.12,9.18V46.65h-9.63Z"/><path class="cls-1" d="M247.32,14.42H257V46.65h-9.63ZM266.17,1,256.24,10H248L254.9,1Z"/><path class="cls-1" d="M289.68,38.08a74.21,74.21,0,0,0,.47,8.57h-8.41a24.23,24.23,0,0,1-.52-3.7c-1.45,2.51-4.62,4.26-9.46,4.26-8.5,0-11.59-4.91-11.59-9.85,0-6,4.45-10.65,16.27-10.65h3.81v-2.2c0-2.56-.86-4.4-4.56-4.4s-4.61,1.87-4.89,4h-9.31c.34-5,3.57-10.34,14.34-10.34,8.27,0,13.85,2.61,13.85,10.71Zm-9.11-5.67h-3.94c-5.75,0-6.82,2.2-6.82,4.22s1.28,3.78,4.54,3.78c5.13,0,6.22-3.2,6.22-7.32Z"/><path class="cls-1" d="M308.89,4.2h9.9V39.06h19.86l-1,7.59H308.89Z"/><path class="cls-1" d="M348.68,32.61c0,3.5,1.37,7.56,6.28,7.56,3.81,0,5-2.16,5.48-3.53h9.44c-1.76,5.59-5.89,10.57-15.18,10.57-11,0-15.72-6.85-15.72-16.62,0-8,4.28-16.8,16.11-16.8,11.64,0,15.19,7.7,15.19,16.16,0,.49-.06,2.11-.13,2.66Zm12.23-5.83c-.14-3.29-1.55-6.24-6-6.24-4.81,0-6,3.54-6.15,6.24Z"/><path class="cls-1" d="M373.77,1.54h9.63v8h-9.63Zm0,12.88h9.63V46.65h-9.63Z"/><path class="cls-1" d="M395.39,14.42c3.09,10.57,5.42,18.12,6.34,23.48h.07c.92-5.16,3.27-11.85,6.73-23.48H418L406.36,46.65h-10L385.11,14.42Z"/><path class="cls-1" d="M446,38.08a79,79,0,0,0,.46,8.57H438a27,27,0,0,1-.53-3.7c-1.44,2.51-4.62,4.26-9.45,4.26-8.51,0-11.56-4.87-11.56-9.87,0-6,4.45-10.65,16.27-10.65h3.73v-2.2c0-2.56-.86-4.4-4.55-4.4s-4.62,1.87-4.89,4h-9.31c.33-5,3.57-10.34,14.33-10.34,8.28,0,13.86,2.61,13.86,10.71Zm-9.11-5.67h-3.94c-5.75,0-6.82,2.2-6.82,4.22s1.27,3.78,4.54,3.78c5.13,0,6.22-3.2,6.22-7.32Z"/><path class="cls-2" d="M98,73.88a2.62,2.62,0,0,0,2.87,2.29c1.82,0,2.45-.76,2.45-1.84,0-1.39-.87-2-3.18-2.59-3.7-1-5-2.25-5-4.46,0-2.84,2.37-4.38,5.41-4.38,3.83,0,5.45,1.9,5.63,4.36H103a2.17,2.17,0,0,0-2.3-2l-.17,0c-1.43,0-2.14.63-2.14,1.69s.8,1.47,3.07,2.1c4.07,1.14,5.14,2.7,5.14,4.9,0,2.49-1.73,4.62-5.91,4.62-3.48,0-5.74-1.68-5.94-4.71Z"/><path class="cls-2" d="M119.38,71.72h-6.89v4.12h7.66l-.39,2.55H109.28V63.1h10.4v2.57h-7.19v3.47h6.93Z"/><path class="cls-2" d="M135.28,78.39h-2.4a13,13,0,0,1-.24-1.77c-.82,1.52-2.42,2-4.42,2-4.17,0-6.37-3.34-6.37-7.79s2.59-7.94,7.29-7.94c3.8,0,5.77,2,6.16,4.59h-3.19c-.3-1-1-2.09-3.16-2.09-2.77,0-3.76,2.55-3.76,5.46s1.06,5.28,3.76,5.28c2.4,0,3.1-1.6,3.1-3.57v-.07h-3.34V69.85h6.57Z"/><path class="cls-2" d="M141.49,63.1v9.73c0,1.72.5,3.3,3,3.3s2.89-1.51,2.89-3.31V63.1h3.28v9.79c0,3.21-1.42,5.73-6.24,5.73s-6.15-2.44-6.15-5.71V63.1Z"/><path class="cls-2" d="M154.09,78.39V63.1h4.15c4.74,9.32,5.51,10.83,5.75,11.55h0c-.16-1.81-.18-4.31-.18-6.81V63.1h3V78.39h-4c-5.09-10.25-5.66-11.47-5.89-12h0c.11,1.93.13,4.58.13,7.31v4.73Z"/><path class="cls-2" d="M170.41,63.1H176c4.85,0,7.52,2.84,7.52,7.32,0,5-2.8,8-7.64,8h-5.42Zm3.27,12.84h2.11c2.83,0,4.31-2,4.31-5.47,0-2.84-1.33-4.88-4.28-4.88h-2.14Z"/><path class="cls-2" d="M188.74,74.76l-1.12,3.63h-3.2c.21-.59,4.64-14.62,4.88-15.29h4.19l5.13,15.29h-3.41L194,74.76Zm4.63-2.58c-1-3.1-1.68-5.29-2-6.72h0c-.39,1.7-1.11,4.09-1.94,6.72Z"/><path class="cls-2" d="M205.19,78.39V63.1h4.15c4.74,9.32,5.5,10.83,5.75,11.55h0c-.16-1.81-.18-4.31-.18-6.81V63.1h3V78.39h-4c-5.08-10.25-5.65-11.47-5.88-12h0c.12,1.93.14,4.58.14,7.31v4.73Z"/><path class="cls-2" d="M235.1,70.67c0,4.41-2.21,8-7.24,8s-7-3.63-7-8c0-3.77,2.16-7.75,7.25-7.75C232.91,62.89,235.1,66.56,235.1,70.67Zm-10.9,0c0,3,1.27,5.48,3.79,5.48,2.78,0,3.78-2.26,3.78-5.46,0-2.81-1-5.3-3.83-5.3-2.64,0-3.74,2.32-3.74,5.26Z"/><path class="cls-2" d="M240.31,65.68H236V63.1h11.93v2.58h-4.33V78.39h-3.27Z"/><path class="cls-2" d="M251.13,74.76,250,78.39h-3.19c.21-.59,4.64-14.62,4.88-15.29h4.2L261,78.39h-3.41l-1.21-3.63Zm4.63-2.58c-1-3.1-1.69-5.29-2-6.72h0c-.39,1.7-1.11,4.09-2,6.72Z"/><path class="cls-2" d="M266.19,72.07v6.32H263V63.1h6.5c3,0,5.17,1.43,5.17,4.13a3.5,3.5,0,0,1-2.49,3.58c1.59.59,2.16,1.79,2.16,3.68v.4a25.59,25.59,0,0,0,.21,3.5H271.4a11.77,11.77,0,0,1-.29-3.55v-.4c0-1.75-.67-2.37-2.75-2.37Zm0-2.47h2.42c1.55,0,2.82-.4,2.82-2.09,0-1.42-1.06-1.94-2.37-1.94h-2.87Z"/><path class="cls-2" d="M280.7,63.1V78.39h-3.21V63.1Zm3.52-4.44-3.73,3.1h-2.9l2.73-3.1Z"/><path class="cls-2" d="M286.93,74.76l-1.12,3.63h-3.2c.21-.59,4.64-14.62,4.88-15.29h4.2l5.13,15.29h-3.41l-1.21-3.63Zm4.63-2.58c-1-3.1-1.68-5.29-2-6.72h0c-.39,1.7-1.11,4.09-1.94,6.72Z"/><path class="cls-2" d="M303.38,63.1h5.55c4.85,0,7.51,2.84,7.51,7.32,0,5-2.8,8-7.64,8h-5.42Zm3.28,12.84h2.11c2.82,0,4.31-2,4.31-5.47,0-2.84-1.34-4.88-4.29-4.88h-2.13Z"/><path class="cls-2" d="M329.39,71.72h-6.9v4.12h7.66l-.39,2.55H319.28V63.1h10.4v2.57h-7.19v3.47h6.94Z"/><path class="cls-2" d="M340.35,73.88a2.62,2.62,0,0,0,2.87,2.29c1.82,0,2.45-.76,2.45-1.84,0-1.39-.87-2-3.18-2.59-3.7-1-5-2.25-5-4.46,0-2.84,2.37-4.38,5.41-4.38,3.83,0,5.45,1.9,5.63,4.36h-3.19a2.17,2.17,0,0,0-2.3-2l-.17,0c-1.43,0-2.14.63-2.14,1.69s.8,1.47,3.06,2.1c4.08,1.14,5.15,2.7,5.15,4.9,0,2.49-1.73,4.62-5.91,4.62-3.48,0-5.74-1.68-5.94-4.71Z"/><path class="cls-2" d="M354.49,74.76l-1.13,3.63h-3.19c.21-.59,4.64-14.62,4.88-15.29h4.2l5.13,15.29H361l-1.21-3.63Zm4.63-2.58c-1-3.1-1.69-5.29-2.05-6.72h0c-.39,1.7-1.11,4.09-1.95,6.72Z"/><path class="cls-2" d="M366.35,78.39V63.1h4.14c4.74,9.32,5.51,10.83,5.75,11.55h.05c-.16-1.81-.19-4.31-.19-6.81V63.1h3V78.39h-4c-5.09-10.25-5.66-11.47-5.89-12h0c.11,1.93.13,4.58.13,7.31v4.73Z"/><path class="cls-2" d="M385.57,65.68h-4.33V63.1h11.93v2.58h-4.33V78.39h-3.27Z"/><path class="cls-2" d="M398.49,63.1V78.39h-3.25V63.1Z"/><path class="cls-2" d="M404.72,74.76l-1.12,3.63h-3.2c.21-.59,4.65-14.62,4.88-15.29h4.21l5.12,15.29H411.2L410,74.76Zm4.63-2.58c-1-3.1-1.68-5.29-2-6.72h0c-.38,1.7-1.11,4.09-1.94,6.72Z"/><path class="cls-2" d="M428.94,78.39h-2.39a13,13,0,0,1-.24-1.77c-.82,1.52-2.42,2-4.42,2-4.17,0-6.37-3.34-6.37-7.79s2.59-7.94,7.29-7.94c3.8,0,5.77,2,6.16,4.59h-3.19c-.3-1-1-2.09-3.16-2.09-2.77,0-3.76,2.55-3.76,5.46s1.06,5.28,3.76,5.28c2.4,0,3.1-1.6,3.1-3.57v-.07h-3.34V69.85h6.56Z"/><path class="cls-2" d="M445.94,70.67c0,4.41-2.21,8-7.24,8s-7-3.63-7-8c0-3.77,2.15-7.75,7.24-7.75C443.75,62.89,445.94,66.56,445.94,70.67Zm-10.9,0c0,3,1.27,5.48,3.79,5.48,2.78,0,3.78-2.26,3.78-5.46,0-2.81-1-5.3-3.83-5.3-2.64,0-3.74,2.32-3.74,5.26Z"/><line class="cls-3" x1="89.51" y1="53.84" x2="451.52" y2="53.84"/><path class="cls-1" d="M57.86,3.86V18.32h8.33V63.78H47.7L57.86,78.67H79.65V3.86ZM39.54,18.32,29.7,3.86H8.11V78.67H29.85V63.78H20.74V18.32Z"/><path d="M58.62,47.09,58.4,58.83H29.15V56.45c2,0,3.32-.31,3.9-.94a4.67,4.67,0,0,0,.87-3.21V30.23a7.68,7.68,0,0,0-.29-2.37,2.25,2.25,0,0,0-1.34-1.31,8.15,8.15,0,0,0-3.14-.47V23.7H45.66v2.38a8.52,8.52,0,0,0-3.11.44,2.34,2.34,0,0,0-1.38,1.28,6.94,6.94,0,0,0-.33,2.43V50.44a19.11,19.11,0,0,0,.22,3.42,2.24,2.24,0,0,0,1.19,1.56,6.85,6.85,0,0,0,3.17.54,23.39,23.39,0,0,0,4.88-.46,7.31,7.31,0,0,0,3.87-2.41,10.37,10.37,0,0,0,2.22-6Z"/></svg>